<svg width="1045" height="573" viewBox="0 0 1045 573" fill="none" xmlns="http://www.w3.org/2000/svg">
<rect width="1045" height="573" fill="#E5E5E5"/>
<rect width="1045" height="573" fill="white"/>
<path d="M248.392 376.4C245.685 376.403 243.09 377.48 241.176 379.394C239.262 381.308 238.185 383.903 238.182 386.61V410.496C238.185 413.203 239.262 415.798 241.176 417.712C243.09 419.626 245.685 420.702 248.392 420.705H261.341C264.048 420.702 266.643 419.626 268.557 417.712C270.471 415.798 271.548 413.203 271.551 410.496V386.61C271.548 383.903 270.471 381.308 268.557 379.394C266.643 377.48 264.048 376.403 261.341 376.4H248.392Z" fill="#3F3D56"/>
<path d="M487.773 421.5H474.823C471.905 421.497 469.108 420.336 467.045 418.273C464.983 416.21 463.822 413.413 463.819 410.496V386.61C463.822 383.693 464.983 380.896 467.045 378.833C469.108 376.77 471.905 375.609 474.823 375.606H487.773C490.69 375.609 493.487 376.77 495.55 378.833C497.613 380.896 498.773 383.693 498.777 386.61V410.496C498.773 413.413 497.613 416.21 495.55 418.273C493.487 420.336 490.69 421.497 487.773 421.5V421.5Z" fill="#3F3D56"/>
<path d="M479.18 402.375H256.19C246.041 402.375 237.785 396.393 237.785 389.039V346.159L248.853 334.503H488.67L497.585 346.184V389.039C497.585 396.393 489.329 402.375 479.18 402.375Z" fill="#CCCCCC"/>
<path d="M487.629 355.954H250.125L247.711 318.945L249.247 315.158L258.175 293.189H477.972L490.043 318.137L487.629 355.954Z" fill="#CCCCCC"/>
<path d="M489.64 318.216L487.868 346.023H435.614V325.366L488.154 315.149L489.64 318.216Z" fill="white"/>
<path d="M301.345 325.366V346.023H249.877L248.113 319.01L249.615 315.308L301.345 325.366Z" fill="white"/>
<path d="M476.647 299.545H259.497L282.657 222.343C283.602 219.155 285.547 216.355 288.206 214.357C290.864 212.359 294.095 211.27 297.42 211.25L441.231 209.88C444.706 209.846 448.092 210.976 450.85 213.09C453.608 215.204 455.58 218.18 456.45 221.544L476.647 299.545Z" fill="#CCCCCC"/>
<path d="M459.93 292.245L276.178 290.066C275.946 290.063 275.717 290.006 275.511 289.899C275.305 289.792 275.127 289.638 274.991 289.449C274.855 289.261 274.766 289.043 274.729 288.814C274.693 288.584 274.711 288.349 274.782 288.128L292.397 233.168C292.493 232.868 292.682 232.607 292.936 232.422C293.19 232.236 293.497 232.136 293.811 232.136H441.607C441.921 232.136 442.228 232.236 442.482 232.421C442.736 232.607 442.924 232.868 443.021 233.167L461.362 290.307C461.433 290.531 461.451 290.769 461.413 291.001C461.375 291.233 461.282 291.453 461.142 291.642C461.002 291.832 460.82 291.985 460.609 292.09C460.398 292.195 460.166 292.248 459.93 292.245V292.245Z" fill="white"/>
<path d="M259.634 297.956H227.059V290.796C227.062 288.482 227.982 286.263 229.619 284.626C231.256 282.989 233.475 282.069 235.789 282.066H259.634V297.956Z" fill="#CCCCCC"/>
<path d="M509.105 297.956H476.531V282.066H500.375C502.69 282.069 504.909 282.989 506.545 284.626C508.182 286.263 509.103 288.482 509.105 290.796V297.956Z" fill="#CCCCCC"/>
<path d="M223.248 409.567L64.0009 466.774L64.6769 468.656L223.924 411.449L223.248 409.567Z" fill="#3F3D56"/>
<path d="M511.912 409.571L511.236 411.453L670.488 468.646L671.164 466.764L511.912 409.571Z" fill="#3F3D56"/>
<path d="M376.931 451.051H367.399V438.739H376.931V451.051ZM376.931 426.426H367.399V414.115H376.931V426.426Z" fill="#E6E6E6"/>
<path d="M376.931 502.051H367.399V489.739H376.931V502.051ZM376.931 477.426H367.399V465.115H376.931V477.426Z" fill="#E6E6E6"/>
<path d="M795.758 459.521H785.26L780.264 419.028H795.758V459.521Z" fill="#FFB8B8"/>
<path d="M798.436 469.698H764.585V469.269C764.589 465.776 765.978 462.427 768.449 459.957C770.919 457.487 774.268 456.097 777.761 456.094H798.436L798.436 469.698Z" fill="#2F2E41"/>
<path d="M931.137 439.628L922.138 445.035L897.001 412.898L910.282 404.918L931.137 439.628Z" fill="#FFB8B8"/>
<path d="M909.658 464.406L909.437 464.039C907.641 461.042 907.108 457.456 907.953 454.067C908.798 450.677 910.953 447.761 913.945 445.959L931.667 435.311L938.674 446.972L909.658 464.406Z" fill="#2F2E41"/>
<path d="M798.488 451.165L798.307 451.164C793.2 451.148 788.097 450.854 783.022 450.284C781.088 450.093 778.989 449.886 776.461 449.678L776.374 449.662C774.649 449.149 774.601 432.972 775.333 377.597C775.707 349.234 776.132 317.087 775.626 296.615L775.621 296.414L775.773 296.281C794.501 279.993 818.551 273.887 843.493 279.089L843.678 279.127L843.774 279.29C854.092 296.748 869.671 321.894 884.736 346.214C919.32 402.04 929.212 418.458 928.128 419.696L927.997 419.798C925.635 420.978 923.862 421.887 922.355 422.66C917.307 425.249 915.218 426.32 903.992 430.943L903.714 431.057L903.512 430.835C868.421 392.383 839.219 349.43 821.156 309.722C819.046 323.278 816.484 340.979 813.777 359.683C805.993 413.465 800.732 448.879 798.614 451.036L798.488 451.165Z" fill="#2F2E41"/>
<path d="M852.991 124.903C856.525 110.311 859.519 93.8528 852.854 80.4135C848.23 71.0886 831.122 67.9483 821.315 71.3077C811.508 74.6671 804.418 83.7814 801.299 93.7188C798.181 103.656 798.544 114.365 799.903 124.695C817.939 124.349 835.975 124.002 852.991 124.903Z" fill="#2F2E41"/>
<path d="M822.554 124.899C834.17 124.899 843.586 115.483 843.586 103.867C843.586 92.2514 834.17 82.8351 822.554 82.8351C810.939 82.8351 801.522 92.2514 801.522 103.867C801.522 115.483 810.939 124.899 822.554 124.899Z" fill="#FFB8B8"/>
<path d="M848.266 99.5346C848.333 95.9948 847.687 92.4777 846.368 89.1923C845.049 85.9069 843.083 82.9201 840.586 80.4096C838.09 77.899 835.114 75.9159 831.837 74.5779C828.559 73.24 825.045 72.5746 821.505 72.6213C817.965 72.6679 814.471 73.4257 811.229 74.8496C807.988 76.2735 805.066 78.3344 802.636 80.9099C800.207 83.4854 798.32 86.5229 797.088 89.8419C795.856 93.161 795.304 96.6939 795.464 100.231C813.466 100.269 831.467 100.307 848.266 99.5346Z" fill="#2F2E41"/>
<path d="M807.942 300.752C828.867 300.658 849.653 304.138 869.406 311.042C870.094 277.889 858.68 244.675 838.042 219.827L837.888 219.641L837.967 219.413C843.479 203.486 849.177 187.023 854.268 170.641L854.191 170.366C850.62 157.672 842.956 144.845 830.762 131.151C829.439 129.78 827.644 128.964 825.742 128.868C823.839 128.771 821.971 129.402 820.517 130.632C798.841 150.503 787.055 180.276 789.758 208.332L789.766 208.415L789.743 208.495C780.194 240.845 776.727 257.461 773.669 272.121C771.438 282.816 769.507 292.076 765.628 305.307C779.53 302.282 793.716 300.755 807.942 300.752V300.752Z" fill="#3F3D56"/>
<path opacity="0.1" d="M838.749 198.486L807.685 266.115L789.939 248.152L838.749 198.486Z" fill="black"/>
<path d="M769.023 236.05L771.189 240.258C771.209 240.297 771.212 240.343 771.199 240.384C771.186 240.426 771.156 240.461 771.118 240.481L771.013 240.534L782.296 262.457C782.608 263.064 782.667 263.77 782.458 264.42C782.25 265.069 781.792 265.61 781.186 265.922L767.487 272.972C767.187 273.127 766.859 273.22 766.523 273.248C766.186 273.276 765.847 273.237 765.525 273.134C765.204 273.031 764.906 272.866 764.648 272.647C764.39 272.429 764.178 272.162 764.023 271.862L764.023 271.861L753.136 250.707L753.061 250.746C753.033 250.761 753.001 250.763 752.972 250.754C752.942 250.745 752.918 250.724 752.904 250.697L751.671 248.302C751.664 248.288 751.66 248.273 751.658 248.258C751.657 248.242 751.659 248.227 751.664 248.213C751.668 248.198 751.676 248.184 751.686 248.173C751.696 248.161 751.708 248.151 751.721 248.144V248.144L751.797 248.105L751.333 247.203L751.256 247.243C751.228 247.257 751.194 247.26 751.163 247.25C751.132 247.24 751.107 247.218 751.092 247.189L749.876 244.827C749.862 244.798 749.859 244.765 749.869 244.734C749.879 244.703 749.9 244.678 749.929 244.663L750.005 244.624L749.371 243.392L749.294 243.432C749.268 243.445 749.239 243.448 749.211 243.439C749.184 243.43 749.161 243.411 749.148 243.386L749.148 243.385L748.485 242.096C748.472 242.071 748.469 242.041 748.478 242.014C748.486 241.986 748.505 241.963 748.531 241.95L748.609 241.91L747.265 239.3C746.953 238.693 746.895 237.988 747.103 237.338C747.311 236.688 747.769 236.148 748.375 235.836L762.073 228.786C762.68 228.474 763.386 228.415 764.035 228.623C764.685 228.831 765.225 229.289 765.538 229.896L768.696 236.033L768.801 235.979C768.84 235.959 768.885 235.955 768.926 235.969C768.968 235.982 769.003 236.011 769.023 236.05V236.05Z" fill="#3F3D56"/>
<path d="M764.675 230.912L781.298 263.211C781.496 263.596 781.533 264.043 781.401 264.455C781.269 264.867 780.978 265.21 780.594 265.408L767.481 272.157C767.097 272.355 766.65 272.393 766.238 272.262C765.826 272.131 765.484 271.841 765.285 271.458L765.283 271.453L748.66 239.154C748.562 238.963 748.502 238.755 748.485 238.542C748.467 238.328 748.492 238.113 748.557 237.909C748.622 237.705 748.727 237.516 748.866 237.352C749.004 237.189 749.174 237.054 749.364 236.956L749.364 236.956L751.327 235.946L751.456 236.198C751.537 236.355 751.648 236.494 751.783 236.608C751.917 236.722 752.073 236.809 752.241 236.862C752.409 236.916 752.587 236.937 752.762 236.922C752.938 236.907 753.11 236.858 753.266 236.778L759.935 233.345C760.252 233.182 760.491 232.9 760.6 232.561C760.709 232.221 760.678 231.852 760.515 231.535L760.386 231.284L762.477 230.207C762.862 230.009 763.31 229.972 763.722 230.104C764.134 230.236 764.477 230.526 764.675 230.911L764.675 230.912Z" fill="#232323"/>
<path d="M769.493 270.371C770.749 270.284 771.97 269.922 773.071 269.312C774.172 268.701 775.126 267.857 775.865 266.838C776.604 265.819 777.111 264.65 777.35 263.414C777.589 262.178 777.554 260.905 777.247 259.684L802.843 242.914L788.245 236.608L766.177 253.499C764.16 254.15 762.452 255.519 761.376 257.345C760.301 259.171 759.933 261.329 760.341 263.408C760.75 265.488 761.907 267.345 763.594 268.629C765.281 269.912 767.38 270.532 769.493 270.371V270.371Z" fill="#FFB8B8"/>
<path d="M794.122 258.29L793.799 258.062C787.708 253.578 780.945 248.942 774.405 244.458L774.012 244.188L774.321 243.826C788.28 227.494 802.255 210.435 815.771 193.933C815.761 193.907 815.752 193.887 815.745 193.874L815.872 193.809L815.926 193.743L815.955 193.767L816.037 193.726L815.668 193.754L811.502 161.084C807.739 155.95 807.019 145.759 811.95 138.644C817.058 131.275 827.864 128.808 835.076 133.364C836.966 134.632 838.546 136.309 839.699 138.271C840.853 140.233 841.55 142.429 841.74 144.696C842.008 146.717 841.821 148.771 841.194 150.71C840.566 152.649 839.513 154.423 838.112 155.903C839.883 173.193 839.951 188.647 840.017 203.596L840.017 203.745L839.925 203.868C825.515 222.174 809.688 240.383 794.381 257.992L794.122 258.29Z" fill="#3F3D56"/>
<path d="M367.795 169.101C393.912 169.101 415.085 147.929 415.085 121.811C415.085 95.6935 393.912 74.5211 367.795 74.5211C341.677 74.5211 320.505 95.6935 320.505 121.811C320.505 147.929 341.677 169.101 367.795 169.101Z" fill="#232323"/>
<path d="M360.154 141.773L346 123.574L354.231 117.172L360.933 125.789L383.573 101.889L391.144 109.062L360.154 141.773Z" fill="white"/>
<path d="M981.582 471H742.582C742.317 471 742.063 470.895 741.875 470.707C741.688 470.52 741.582 470.265 741.582 470C741.582 469.735 741.688 469.48 741.875 469.293C742.063 469.105 742.317 469 742.582 469H981.582C981.847 469 982.102 469.105 982.289 469.293C982.477 469.48 982.582 469.735 982.582 470C982.582 470.265 982.477 470.52 982.289 470.707C982.102 470.895 981.847 471 981.582 471Z" fill="#3F3D56"/>
</svg>
